# xmcd CD database file
#
# Track frame offsets:
#	150
#	18682
#	38111
#	55204
#	73667
#	96127
#	99673
#	116183
#	128030
#	144225
#	162667
#	175135
#
# Disc length: 2923 seconds
#
# Revision: 0
# Processed by: cddbd v1.4PL0 Copyright (c) Steve Scherf et al.
# Submitted via: CDex 1.51
#
DISCID=aa0b690c
DTITLE=Alex Boye - The Love goes on
DYEAR=2001
DGENRE=Rhythmic Soul
TTITLE0=Keep Walking
TTITLE1=A million miles astray
TTITLE2=The Love goes on
TTITLE3=Ye Elders
TTITLE4=Pray
TTITLE5=Prayer Interlude
TTITLE6=All Creatures
TTITLE7=Faith Endures
TTITLE8=Because
TTITLE9=Need to Know
TTITLE10=Faith II (remix)
TTITLE11=Think Again
EXTD=YEAR: 2001
EXTT0=
EXTT1=
EXTT2=
EXTT3=
EXTT4=
EXTT5=
EXTT6=
EXTT7=
EXTT8=
EXTT9=
EXTT10=
EXTT11=
PLAYORDER=
